<svg xmlns="http://www.w3.org/2000/svg" xmlns:xlink="http://www.w3.org/1999/xlink" version="1.1" class="marks" width="616" height="304" viewBox="0 0 616 304"><g fill="none" stroke-miterlimit="10" transform="translate(107,39)"><g class="mark-group role-frame root" role="graphics-object" aria-roledescription="group mark container"><g transform="translate(0,0)"><path class="background" aria-hidden="true" d="M0,0h480v220h-480Z"/><g><g class="mark-group role-axis" role="graphics-symbol" aria-roledescription="axis" aria-label="X-axis titled 'Expected loss (USD million)' for a linear scale with values from 0.0 to 2.6"><g transform="translate(0.5,220.5)"><path class="background" aria-hidden="true" d="M0,0h0v0h0Z" pointer-events="none"/><g><g class="mark-rule role-axis-tick" pointer-events="none"><line transform="translate(0,0)" x2="0" y2="5" stroke="#888" stroke-width="1" opacity="1"/><line transform="translate(37,0)" x2="0" y2="5" stroke="#888" stroke-width="1" opacity="1"/><line transform="translate(74,0)" x2="0" y2="5" stroke="#888" stroke-width="1" opacity="1"/><line transform="translate(111,0)" x2="0" y2="5" stroke="#888" stroke-width="1" opacity="1"/><line transform="translate(148,0)" x2="0" y2="5" stroke="#888" stroke-width="1" opacity="1"/><line transform="translate(185,0)" x2="0" y2="5" stroke="#888" stroke-width="1" opacity="1"/><line transform="translate(222,0)" x2="0" y2="5" stroke="#888" stroke-width="1" opacity="1"/><line transform="translate(258,0)" x2="0" y2="5" stroke="#888" stroke-width="1" opacity="1"/><line transform="translate(295,0)" x2="0" y2="5" stroke="#888" stroke-width="1" opacity="1"/><line transform="translate(332,0)" x2="0" y2="5" stroke="#888" stroke-width="1" opacity="1"/><line transform="translate(369,0)" x2="0" y2="5" stroke="#888" stroke-width="1" opacity="1"/><line transform="translate(406,0)" x2="0" y2="5" stroke="#888" stroke-width="1" opacity="1"/><line transform="translate(443,0)" x2="0" y2="5" stroke="#888" stroke-width="1" opacity="1"/><line transform="translate(480,0)" x2="0" y2="5" stroke="#888" stroke-width="1" opacity="1"/></g><g class="mark-text role-axis-label" pointer-events="none"><text text-anchor="start" transform="translate(0,18)" font-family="Tahoma, Verdana, sans-serif" font-size="14px" fill="#282828" opacity="1">0.0</text><text text-anchor="middle" transform="translate(36.92307692307693,18)" font-family="Tahoma, Verdana, sans-serif" font-size="14px" fill="#282828" opacity="1">0.2</text><text text-anchor="middle" transform="translate(73.84615384615385,18)" font-family="Tahoma, Verdana, sans-serif" font-size="14px" fill="#282828" opacity="1">0.4</text><text text-anchor="middle" transform="translate(110.76923076923076,18)" font-family="Tahoma, Verdana, sans-serif" font-size="14px" fill="#282828" opacity="1">0.6</text><text text-anchor="middle" transform="translate(147.6923076923077,18)" font-family="Tahoma, Verdana, sans-serif" font-size="14px" fill="#282828" opacity="1">0.8</text><text text-anchor="middle" transform="translate(184.61538461538458,18)" font-family="Tahoma, Verdana, sans-serif" font-size="14px" fill="#282828" opacity="1">1.0</text><text text-anchor="middle" transform="translate(221.53846153846152,18)" font-family="Tahoma, Verdana, sans-serif" font-size="14px" fill="#282828" opacity="1">1.2</text><text text-anchor="middle" transform="translate(258.46153846153845,18)" font-family="Tahoma, Verdana, sans-serif" font-size="14px" fill="#282828" opacity="1">1.4</text><text text-anchor="middle" transform="translate(295.3846153846154,18)" font-family="Tahoma, Verdana, sans-serif" font-size="14px" fill="#282828" opacity="1">1.6</text><text text-anchor="middle" transform="translate(332.3076923076923,18)" font-family="Tahoma, Verdana, sans-serif" font-size="14px" fill="#282828" opacity="1">1.8</text><text text-anchor="middle" transform="translate(369.23076923076917,18)" font-family="Tahoma, Verdana, sans-serif" font-size="14px" fill="#282828" opacity="1">2.0</text><text text-anchor="middle" transform="translate(406.15384615384613,18)" font-family="Tahoma, Verdana, sans-serif" font-size="14px" fill="#282828" opacity="1">2.2</text><text text-anchor="middle" transform="translate(443.07692307692304,18)" font-family="Tahoma, Verdana, sans-serif" font-size="14px" fill="#282828" opacity="1">2.4</text><text text-anchor="end" transform="translate(480,18)" font-family="Tahoma, Verdana, sans-serif" font-size="14px" fill="#282828" opacity="1">2.6</text></g><g class="mark-rule role-axis-domain" pointer-events="none"><line transform="translate(0,0)" x2="480" y2="0" stroke="#888" stroke-width="1" opacity="1"/></g><g class="mark-text role-axis-title" pointer-events="none"><text text-anchor="middle" transform="translate(240,37)" font-family="Tahoma, Verdana, sans-serif" font-size="15px" font-weight="bold" fill="#282828" opacity="1">Expected loss (USD million)</text></g></g><path class="foreground" aria-hidden="true" d="" pointer-events="none" display="none"/></g></g><g class="mark-group role-axis" role="graphics-symbol" aria-roledescription="axis" aria-label="Y-axis for a discrete scale with 3 values: Severe losses, Well control, Blowout"><g transform="translate(0.5,0.5)"><path class="background" aria-hidden="true" d="M0,0h0v0h0Z" pointer-events="none"/><g><g class="mark-rule role-axis-tick" pointer-events="none"><line transform="translate(0,36)" x2="-5" y2="0" stroke="#888" stroke-width="1" opacity="1"/><line transform="translate(0,110)" x2="-5" y2="0" stroke="#888" stroke-width="1" opacity="1"/><line transform="translate(0,183)" x2="-5" y2="0" stroke="#888" stroke-width="1" opacity="1"/></g><g class="mark-text role-axis-label" pointer-events="none"><text text-anchor="end" transform="translate(-7,41.16666666666667)" font-family="Tahoma, Verdana, sans-serif" font-size="16px" fill="#282828" opacity="1">Severe losses</text><text text-anchor="end" transform="translate(-7,114.5)" font-family="Tahoma, Verdana, sans-serif" font-size="16px" fill="#282828" opacity="1">Well control</text><text text-anchor="end" transform="translate(-7,187.83333333333331)" font-family="Tahoma, Verdana, sans-serif" font-size="16px" fill="#282828" opacity="1">Blowout</text></g><g class="mark-rule role-axis-domain" pointer-events="none"><line transform="translate(0,0)" x2="0" y2="220" stroke="#888" stroke-width="1" opacity="1"/></g></g><path class="foreground" aria-hidden="true" d="" pointer-events="none" display="none"/></g></g><g class="mark-group role-scope" role="graphics-object" aria-roledescription="group mark container"><g transform="translate(0,13.666666666666671)"><path class="background" aria-hidden="true" d="M0,0L217.53846153846152,0C219.74612163643752,0,221.53846153846152,1.792339902024,221.53846153846152,4L221.53846153846152,42C221.53846153846152,44.207660097976,219.74612163643752,46,217.53846153846152,46L0,46C0,46,0,46,0,46L0,0C0,0,0,0,0,0Z"/><g clip-path="url(#clip1)"><g class="mark-group role-scope" role="graphics-object" aria-roledescription="group mark container"><g transform="translate(0,0)"><path class="background" aria-hidden="true" d="M0,0h0v46h0Z"/><g><g class="mark-rect role-mark layer_0_marks" role="graphics-object" aria-roledescription="rect mark container"><path aria-label="Expected loss (USD million): 1.2; outcome: Severe losses; matrix: Matrix says RED" role="graphics-symbol" aria-roledescription="bar" d="M0,0h221.53846153846152v46h-221.53846153846152Z" fill="#d32f2f"/></g></g><path class="foreground" aria-hidden="true" d="" display="none"/></g></g></g><path class="foreground" aria-hidden="true" d="" display="none"/></g><g transform="translate(0,87)"><path class="background" aria-hidden="true" d="M0,0L226.76923076923075,0C228.97689086720675,0,230.76923076923075,1.792339902024,230.76923076923075,4L230.76923076923075,42C230.76923076923075,44.207660097976,228.97689086720675,46,226.76923076923075,46L0,46C0,46,0,46,0,46L0,0C0,0,0,0,0,0Z"/><g clip-path="url(#clip2)"><g class="mark-group role-scope" role="graphics-object" aria-roledescription="group mark container"><g transform="translate(0,0)"><path class="background" aria-hidden="true" d="M0,0h0v46h0Z"/><g><g class="mark-rect role-mark layer_0_marks" role="graphics-object" aria-roledescription="rect mark container"><path aria-label="Expected loss (USD million): 1.25; outcome: Well control; matrix: Matrix says YELLOW" role="graphics-symbol" aria-roledescription="bar" d="M0,0h230.76923076923075v46h-230.76923076923075Z" fill="#ffc107"/></g></g><path class="foreground" aria-hidden="true" d="" display="none"/></g></g></g><path class="foreground" aria-hidden="true" d="" display="none"/></g><g transform="translate(0,160.33333333333331)"><path class="background" aria-hidden="true" d="M0,0L457.5384615384615,0C459.74612163643746,0,461.5384615384615,1.792339902024,461.5384615384615,4L461.5384615384615,42C461.5384615384615,44.207660097976,459.74612163643746,46,457.5384615384615,46L0,46C0,46,0,46,0,46L0,0C0,0,0,0,0,0Z"/><g clip-path="url(#clip3)"><g class="mark-group role-scope" role="graphics-object" aria-roledescription="group mark container"><g transform="translate(0,0)"><path class="background" aria-hidden="true" d="M0,0h0v46h0Z"/><g><g class="mark-rect role-mark layer_0_marks" role="graphics-object" aria-roledescription="rect mark container"><path aria-label="Expected loss (USD million): 2.5; outcome: Blowout; matrix: Matrix says YELLOW" role="graphics-symbol" aria-roledescription="bar" d="M0,0h461.5384615384615v46h-461.5384615384615Z" fill="#ffc107"/></g></g><path class="foreground" aria-hidden="true" d="" display="none"/></g></g></g><path class="foreground" aria-hidden="true" d="" display="none"/></g></g><g class="mark-text role-mark layer_1_marks" role="graphics-object" aria-roledescription="text mark container"><text aria-label="el: 1.2; outcome: Severe losses" role="graphics-symbol" aria-roledescription="text mark" text-anchor="start" transform="translate(227.53846153846152,41.66666666666667)" font-family="Tahoma, Verdana, sans-serif" font-size="16px" font-weight="bold" fill="#282828">1.20</text><text aria-label="el: 1.25; outcome: Well control" role="graphics-symbol" aria-roledescription="text mark" text-anchor="start" transform="translate(236.76923076923075,115)" font-family="Tahoma, Verdana, sans-serif" font-size="16px" font-weight="bold" fill="#282828">1.25</text><text aria-label="el: 2.5; outcome: Blowout" role="graphics-symbol" aria-roledescription="text mark" text-anchor="start" transform="translate(467.5384615384615,188.33333333333331)" font-family="Tahoma, Verdana, sans-serif" font-size="16px" font-weight="bold" fill="#282828">2.50</text></g><g class="mark-group role-legend" role="graphics-symbol" aria-roledescription="legend" aria-label="Symbol legend for fill color with 2 values: Matrix says RED, Matrix says YELLOW"><g transform="translate(0,-34)"><path class="background" aria-hidden="true" d="M0,0h290v16h-290Z" pointer-events="none"/><g><g class="mark-group role-legend-entry"><g transform="translate(0,0)"><path class="background" aria-hidden="true" d="M0,0h0v0h0Z" pointer-events="none"/><g><g class="mark-group role-scope" role="graphics-object" aria-roledescription="group mark container"><g transform="translate(0,0.25)"><path class="background" aria-hidden="true" d="M0,0h125.6142578125v15.5h-125.6142578125Z" pointer-events="none" opacity="1"/><g><g class="mark-symbol role-legend-symbol" pointer-events="none"><path transform="translate(7.5,7.5)" d="M-5,-5h10v10h-10Z" fill="#d32f2f" stroke-width="1.5" opacity="1"/></g><g class="mark-text role-legend-label" pointer-events="none"><text text-anchor="start" transform="translate(19,12.5)" font-family="Tahoma, Verdana, sans-serif" font-size="15px" fill="#000" opacity="1">Matrix says RED</text></g></g><path class="foreground" aria-hidden="true" d="" pointer-events="none" display="none"/></g><g transform="translate(136,0.25)"><path class="background" aria-hidden="true" d="M0,0h153.7109375v15.5h-153.7109375Z" pointer-events="none" opacity="1"/><g><g class="mark-symbol role-legend-symbol" pointer-events="none"><path transform="translate(7.5,7.5)" d="M-5,-5h10v10h-10Z" fill="#ffc107" stroke-width="1.5" opacity="1"/></g><g class="mark-text role-legend-label" pointer-events="none"><text text-anchor="start" transform="translate(19,12.5)" font-family="Tahoma, Verdana, sans-serif" font-size="15px" fill="#000" opacity="1">Matrix says YELLOW</text></g></g><path class="foreground" aria-hidden="true" d="" pointer-events="none" display="none"/></g></g></g><path class="foreground" aria-hidden="true" d="" pointer-events="none" display="none"/></g></g></g><path class="foreground" aria-hidden="true" d="" pointer-events="none" display="none"/></g></g></g><path class="foreground" aria-hidden="true" d="" display="none"/></g></g></g><defs><clipPath id="clip1"><path d="M0,0L217.53846153846152,0C219.74612163643752,0,221.53846153846152,1.792339902024,221.53846153846152,4L221.53846153846152,42C221.53846153846152,44.207660097976,219.74612163643752,46,217.53846153846152,46L0,46C0,46,0,46,0,46L0,0C0,0,0,0,0,0Z"/></clipPath><clipPath id="clip2"><path d="M0,0L226.76923076923075,0C228.97689086720675,0,230.76923076923075,1.792339902024,230.76923076923075,4L230.76923076923075,42C230.76923076923075,44.207660097976,228.97689086720675,46,226.76923076923075,46L0,46C0,46,0,46,0,46L0,0C0,0,0,0,0,0Z"/></clipPath><clipPath id="clip3"><path d="M0,0L457.5384615384615,0C459.74612163643746,0,461.5384615384615,1.792339902024,461.5384615384615,4L461.5384615384615,42C461.5384615384615,44.207660097976,459.74612163643746,46,457.5384615384615,46L0,46C0,46,0,46,0,46L0,0C0,0,0,0,0,0Z"/></clipPath></defs></svg>