<svg xmlns="http://www.w3.org/2000/svg" xmlns:xlink="http://www.w3.org/1999/xlink" version="1.1" class="marks" width="513" height="433" viewBox="0 0 513 433"><g fill="none" stroke-miterlimit="10" transform="translate(24,109)"><g class="mark-group role-frame root" role="graphics-object" aria-roledescription="group mark container"><g transform="translate(0,0)"><path class="background" aria-hidden="true" d="M0,0h480v300h-480Z"/><g><g class="mark-group role-axis" role="graphics-symbol" aria-roledescription="axis" aria-label="X-axis titled 'Requirements  →  design  →  build  →  test  →  live' for a linear scale with values from 0 to 10"><g transform="translate(0.5,300.5)"><path class="background" aria-hidden="true" d="M0,0h0v0h0Z" pointer-events="none"/><g><g class="mark-rule role-axis-domain" pointer-events="none"><line transform="translate(0,0)" x2="480" y2="0" stroke="#888" stroke-width="1" opacity="1"/></g><g class="mark-text role-axis-title" pointer-events="none"><text text-anchor="middle" transform="translate(240,16)" font-family="Tahoma, Verdana, sans-serif" font-size="15px" font-weight="bold" fill="#666666" opacity="1">Requirements  →  design  →  build  →  test  →  live</text></g></g><path class="foreground" aria-hidden="true" d="" pointer-events="none" display="none"/></g></g><g class="mark-group role-axis" role="graphics-symbol" aria-roledescription="axis" aria-label="Y-axis titled 'What the change costs' for a linear scale with values from 0 to 14"><g transform="translate(0.5,0.5)"><path class="background" aria-hidden="true" d="M0,0h0v0h0Z" pointer-events="none"/><g><g class="mark-rule role-axis-domain" pointer-events="none"><line transform="translate(0,300)" x2="0" y2="-300" stroke="#888" stroke-width="1" opacity="1"/></g><g class="mark-text role-axis-title" pointer-events="none"><text text-anchor="middle" transform="translate(-4,150) rotate(-90) translate(0,-3)" font-family="Tahoma, Verdana, sans-serif" font-size="15px" font-weight="bold" fill="#666666" opacity="1">What the change costs</text></g></g><path class="foreground" aria-hidden="true" d="" pointer-events="none" display="none"/></g></g><g class="mark-area role-mark layer_0_marks" role="graphics-object" aria-roledescription="area mark container"><path aria-label="t: 0; cost: 1; top: 14" role="graphics-symbol" aria-roledescription="area mark" d="M0,278.571L9.6,277.28L19.2,275.91L28.8,274.458L38.4,272.918L48,271.286L57.6,269.555L67.2,267.72L76.8,265.774L86.4,263.71L96,261.523L105.6,259.203L115.2,256.744L124.8,254.137L134.4,251.372L144,248.441L153.6,245.333L163.2,242.037L172.8,238.543L182.4,234.838L192,230.91L201.6,226.746L211.2,222.33L220.8,217.648L230.4,212.684L240,207.42L249.6,201.839L259.2,195.922L268.8,189.648L278.4,182.996L288,175.943L297.6,168.465L307.2,160.535L316.8,152.128L326.4,143.215L336,133.763L345.6,123.742L355.2,113.117L364.8,101.852L374.4,89.907L384,77.243L393.6,63.815L403.2,49.577L412.8,34.482L422.4,18.476L432,1.505L441.6,-16.488L451.2,-35.566L460.8,-55.795L470.4,-77.242L480,-99.983L480,0L470.4,0L460.8,0L451.2,0L441.6,0L432,0L422.4,0L412.8,0L403.2,0L393.6,0L384,0L374.4,0L364.8,0L355.2,0L345.6,0L336,0L326.4,0L316.8,0L307.2,0L297.6,0L288,0L278.4,0L268.8,0L259.2,0L249.6,0L240,0L230.4,0L220.8,0L211.2,0L201.6,0L192,0L182.4,0L172.8,0L163.2,0L153.6,0L144,0L134.4,0L124.8,0L115.2,0L105.6,0L96,0L86.4,0L76.8,0L67.2,0L57.6,0L48,0L38.4,0L28.8,0L19.2,0L9.6,0L0,0Z" fill="#019546" opacity="0.16"/></g><g class="mark-area role-mark layer_1_marks" role="graphics-object" aria-roledescription="area mark container"><path aria-label="t: 0; cost: 1" role="graphics-symbol" aria-roledescription="area mark" d="M0,278.571L9.6,277.28L19.2,275.91L28.8,274.458L38.4,272.918L48,271.286L57.6,269.555L67.2,267.72L76.8,265.774L86.4,263.71L96,261.523L105.6,259.203L115.2,256.744L124.8,254.137L134.4,251.372L144,248.441L153.6,245.333L163.2,242.037L172.8,238.543L182.4,234.838L192,230.91L201.6,226.746L211.2,222.33L220.8,217.648L230.4,212.684L240,207.42L249.6,201.839L259.2,195.922L268.8,189.648L278.4,182.996L288,175.943L297.6,168.465L307.2,160.535L316.8,152.128L326.4,143.215L336,133.763L345.6,123.742L355.2,113.117L364.8,101.852L374.4,89.907L384,77.243L393.6,63.815L403.2,49.577L412.8,34.482L422.4,18.476L432,1.505L441.6,-16.488L451.2,-35.566L460.8,-55.795L470.4,-77.242L480,-99.983L480,300L470.4,300L460.8,300L451.2,300L441.6,300L432,300L422.4,300L412.8,300L403.2,300L393.6,300L384,300L374.4,300L364.8,300L355.2,300L345.6,300L336,300L326.4,300L316.8,300L307.2,300L297.6,300L288,300L278.4,300L268.8,300L259.2,300L249.6,300L240,300L230.4,300L220.8,300L211.2,300L201.6,300L192,300L182.4,300L172.8,300L163.2,300L153.6,300L144,300L134.4,300L124.8,300L115.2,300L105.6,300L96,300L86.4,300L76.8,300L67.2,300L57.6,300L48,300L38.4,300L28.8,300L19.2,300L9.6,300L0,300Z" fill="#d32f2f" opacity="0.12"/></g><g class="mark-line role-mark layer_2_marks" role="graphics-object" aria-roledescription="line mark container"><path aria-label="Requirements  →  design  →  build  →  test  →  live: 0; What the change costs: 1" role="graphics-symbol" aria-roledescription="line mark" d="M0,278.571L9.6,277.28L19.2,275.91L28.8,274.458L38.4,272.918L48,271.286L57.6,269.555L67.2,267.72L76.8,265.774L86.4,263.71L96,261.523L105.6,259.203L115.2,256.744L124.8,254.137L134.4,251.372L144,248.441L153.6,245.333L163.2,242.037L172.8,238.543L182.4,234.838L192,230.91L201.6,226.746L211.2,222.33L220.8,217.648L230.4,212.684L240,207.42L249.6,201.839L259.2,195.922L268.8,189.648L278.4,182.996L288,175.943L297.6,168.465L307.2,160.535L316.8,152.128L326.4,143.215L336,133.763L345.6,123.742L355.2,113.117L364.8,101.852L374.4,89.907L384,77.243L393.6,63.815L403.2,49.577L412.8,34.482L422.4,18.476L432,1.505L441.6,-16.488L451.2,-35.566L460.8,-55.795L470.4,-77.242L480,-99.983" stroke="#d32f2f" stroke-width="4"/></g><g class="mark-text role-mark layer_3_marks" role="graphics-object" aria-roledescription="text mark container"><text aria-label="t: 2.2; y: 10.2; lab: still worth doing" role="graphics-symbol" aria-roledescription="text mark" text-anchor="middle" transform="translate(105.60000000000001,86.42857142857144)" font-family="Tahoma, Verdana, sans-serif" font-size="17px" font-weight="bold" fill="#2D6E2A">still worth doing</text><text aria-label="t: 7.4; y: 3.2; lab: no longer worth doing" role="graphics-symbol" aria-roledescription="text mark" text-anchor="middle" transform="translate(355.2,236.42857142857142)" font-family="Tahoma, Verdana, sans-serif" font-size="17px" font-weight="bold" fill="#2D6E2A">no longer worth doing</text></g></g><path class="foreground" aria-hidden="true" d="" display="none"/></g></g></g></svg>