<svg xmlns="http://www.w3.org/2000/svg" xmlns:xlink="http://www.w3.org/1999/xlink" version="1.1" class="marks" width="578" height="351" viewBox="0 0 578 351"><g fill="none" stroke-miterlimit="10" transform="translate(93,6)"><g class="mark-group role-frame root" role="graphics-object" aria-roledescription="group mark container"><g transform="translate(0,0)"><path class="background" aria-hidden="true" d="M0,0h480v300h-480Z"/><g><g class="mark-group role-axis" aria-hidden="true"><g transform="translate(0.5,0.5)"><path class="background" aria-hidden="true" d="M0,0h0v0h0Z" pointer-events="none"/><g><g class="mark-rule role-axis-grid" pointer-events="none"><line transform="translate(0,286)" x2="480" y2="0" stroke="#eeeeee" stroke-width="1" opacity="1"/><line transform="translate(0,266)" x2="480" y2="0" stroke="#eeeeee" stroke-width="1" opacity="1"/><line transform="translate(0,252)" x2="480" y2="0" stroke="#eeeeee" stroke-width="1" opacity="1"/><line transform="translate(0,241)" x2="480" y2="0" stroke="#eeeeee" stroke-width="1" opacity="1"/><line transform="translate(0,232)" x2="480" y2="0" stroke="#eeeeee" stroke-width="1" opacity="1"/><line transform="translate(0,225)" x2="480" y2="0" stroke="#eeeeee" stroke-width="1" opacity="1"/><line transform="translate(0,218)" x2="480" y2="0" stroke="#eeeeee" stroke-width="1" opacity="1"/><line transform="translate(0,213)" x2="480" y2="0" stroke="#eeeeee" stroke-width="1" opacity="1"/><line transform="translate(0,207)" x2="480" y2="0" stroke="#eeeeee" stroke-width="1" opacity="1"/><line transform="translate(0,174)" x2="480" y2="0" stroke="#eeeeee" stroke-width="1" opacity="1"/><line transform="translate(0,154)" x2="480" y2="0" stroke="#eeeeee" stroke-width="1" opacity="1"/><line transform="translate(0,140)" x2="480" y2="0" stroke="#eeeeee" stroke-width="1" opacity="1"/><line transform="translate(0,129)" x2="480" y2="0" stroke="#eeeeee" stroke-width="1" opacity="1"/><line transform="translate(0,120)" x2="480" y2="0" stroke="#eeeeee" stroke-width="1" opacity="1"/><line transform="translate(0,112)" x2="480" y2="0" stroke="#eeeeee" stroke-width="1" opacity="1"/><line transform="translate(0,106)" x2="480" y2="0" stroke="#eeeeee" stroke-width="1" opacity="1"/><line transform="translate(0,100)" x2="480" y2="0" stroke="#eeeeee" stroke-width="1" opacity="1"/><line transform="translate(0,95)" x2="480" y2="0" stroke="#eeeeee" stroke-width="1" opacity="1"/><line transform="translate(0,61)" x2="480" y2="0" stroke="#eeeeee" stroke-width="1" opacity="1"/><line transform="translate(0,41)" x2="480" y2="0" stroke="#eeeeee" stroke-width="1" opacity="1"/><line transform="translate(0,27)" x2="480" y2="0" stroke="#eeeeee" stroke-width="1" opacity="1"/><line transform="translate(0,16)" x2="480" y2="0" stroke="#eeeeee" stroke-width="1" opacity="1"/><line transform="translate(0,8)" x2="480" y2="0" stroke="#eeeeee" stroke-width="1" opacity="1"/><line transform="translate(0,0)" x2="480" y2="0" stroke="#eeeeee" stroke-width="1" opacity="1"/></g></g><path class="foreground" aria-hidden="true" d="" pointer-events="none" display="none"/></g></g><g class="mark-group role-axis" role="graphics-symbol" aria-roledescription="axis" aria-label="X-axis titled 'Phase in which the requirements error was FOUND' for a linear scale with values from 0 to 5"><g transform="translate(0.5,300.5)"><path class="background" aria-hidden="true" d="M0,0h0v0h0Z" pointer-events="none"/><g><g class="mark-rule role-axis-tick" pointer-events="none"><line transform="translate(39,0)" x2="0" y2="5" stroke="#888" stroke-width="1" opacity="1"/><line transform="translate(137,0)" x2="0" y2="5" stroke="#888" stroke-width="1" opacity="1"/><line transform="translate(235,0)" x2="0" y2="5" stroke="#888" stroke-width="1" opacity="1"/><line transform="translate(333,0)" x2="0" y2="5" stroke="#888" stroke-width="1" opacity="1"/><line transform="translate(431,0)" x2="0" y2="5" stroke="#888" stroke-width="1" opacity="1"/></g><g class="mark-text role-axis-label" pointer-events="none"><text text-anchor="middle" transform="translate(39.18367346938775,18)" font-family="Tahoma, Verdana, sans-serif" font-size="14px" fill="#282828" opacity="1">Requirements</text><text text-anchor="middle" transform="translate(137.14285714285714,18)" font-family="Tahoma, Verdana, sans-serif" font-size="14px" fill="#282828" opacity="1">Design</text><text text-anchor="middle" transform="translate(235.1020408163265,18)" font-family="Tahoma, Verdana, sans-serif" font-size="14px" fill="#282828" opacity="1">Build</text><text text-anchor="middle" transform="translate(333.06122448979585,18)" font-family="Tahoma, Verdana, sans-serif" font-size="14px" fill="#282828" opacity="1">Test</text><text text-anchor="middle" transform="translate(431.0204081632653,18)" font-family="Tahoma, Verdana, sans-serif" font-size="14px" fill="#282828" opacity="1">Operations</text></g><g class="mark-rule role-axis-domain" pointer-events="none"><line transform="translate(0,0)" x2="480" y2="0" stroke="#888" stroke-width="1" opacity="1"/></g><g class="mark-text role-axis-title" pointer-events="none"><text text-anchor="middle" transform="translate(240,37)" font-family="Tahoma, Verdana, sans-serif" font-size="15px" font-weight="bold" fill="#282828" opacity="1">Phase in which the requirements error was FOUND</text></g></g><path class="foreground" aria-hidden="true" d="" pointer-events="none" display="none"/></g></g><g class="mark-group role-axis" role="graphics-symbol" aria-roledescription="axis" aria-label="Y-axis titled 'Cost to fix one error (USD, log scale)' for a log scale with values from 15,000 to 7,000,000"><g transform="translate(0.5,0.5)"><path class="background" aria-hidden="true" d="M0,0h0v0h0Z" pointer-events="none"/><g><g class="mark-rule role-axis-tick" pointer-events="none"><line transform="translate(0,286)" x2="-5" y2="0" stroke="#888" stroke-width="1" opacity="1"/><line transform="translate(0,266)" x2="-5" y2="0" stroke="#888" stroke-width="1" opacity="1"/><line transform="translate(0,252)" x2="-5" y2="0" stroke="#888" stroke-width="1" opacity="1"/><line transform="translate(0,241)" x2="-5" y2="0" stroke="#888" stroke-width="1" opacity="1"/><line transform="translate(0,232)" x2="-5" y2="0" stroke="#888" stroke-width="1" opacity="1"/><line transform="translate(0,225)" x2="-5" y2="0" stroke="#888" stroke-width="1" opacity="1"/><line transform="translate(0,218)" x2="-5" y2="0" stroke="#888" stroke-width="1" opacity="1"/><line transform="translate(0,213)" x2="-5" y2="0" stroke="#888" stroke-width="1" opacity="1"/><line transform="translate(0,207)" x2="-5" y2="0" stroke="#888" stroke-width="1" opacity="1"/><line transform="translate(0,174)" x2="-5" y2="0" stroke="#888" stroke-width="1" opacity="1"/><line transform="translate(0,154)" x2="-5" y2="0" stroke="#888" stroke-width="1" opacity="1"/><line transform="translate(0,140)" x2="-5" y2="0" stroke="#888" stroke-width="1" opacity="1"/><line transform="translate(0,129)" x2="-5" y2="0" stroke="#888" stroke-width="1" opacity="1"/><line transform="translate(0,120)" x2="-5" y2="0" stroke="#888" stroke-width="1" opacity="1"/><line transform="translate(0,112)" x2="-5" y2="0" stroke="#888" stroke-width="1" opacity="1"/><line transform="translate(0,106)" x2="-5" y2="0" stroke="#888" stroke-width="1" opacity="1"/><line transform="translate(0,100)" x2="-5" y2="0" stroke="#888" stroke-width="1" opacity="1"/><line transform="translate(0,95)" x2="-5" y2="0" stroke="#888" stroke-width="1" opacity="1"/><line transform="translate(0,61)" x2="-5" y2="0" stroke="#888" stroke-width="1" opacity="1"/><line transform="translate(0,41)" x2="-5" y2="0" stroke="#888" stroke-width="1" opacity="1"/><line transform="translate(0,27)" x2="-5" y2="0" stroke="#888" stroke-width="1" opacity="1"/><line transform="translate(0,16)" x2="-5" y2="0" stroke="#888" stroke-width="1" opacity="1"/><line transform="translate(0,8)" x2="-5" y2="0" stroke="#888" stroke-width="1" opacity="1"/><line transform="translate(0,0)" x2="-5" y2="0" stroke="#888" stroke-width="1" opacity="1"/></g><g class="mark-text role-axis-label" pointer-events="none"><text text-anchor="end" transform="translate(-7,289.9567157154137)" font-family="Tahoma, Verdana, sans-serif" font-size="14px" fill="#282828" opacity="1">20,000</text><text text-anchor="end" transform="translate(-7,270.1638181875432)" font-family="Tahoma, Verdana, sans-serif" font-size="14px" fill="#282828" opacity="1">30,000</text><text text-anchor="end" transform="translate(-7,256.12053390295694)" font-family="Tahoma, Verdana, sans-serif" font-size="14px" fill="#282828" opacity="1">40,000</text><text text-anchor="end" transform="translate(-7,245.22771635381022)" font-family="Tahoma, Verdana, sans-serif" font-size="14px" fill="#282828" opacity="1"/><text text-anchor="end" transform="translate(-7,236.32763637508643)" font-family="Tahoma, Verdana, sans-serif" font-size="14px" fill="#282828" opacity="1"/><text text-anchor="end" transform="translate(-7,228.80272597303392)" font-family="Tahoma, Verdana, sans-serif" font-size="14px" fill="#282828" opacity="1"/><text text-anchor="end" transform="translate(-7,222.28435209050014)" font-family="Tahoma, Verdana, sans-serif" font-size="14px" fill="#282828" opacity="1"/><text text-anchor="end" transform="translate(-7,216.53473884721603)" font-family="Tahoma, Verdana, sans-serif" font-size="14px" fill="#282828" opacity="1"/><text text-anchor="end" transform="translate(-7,211.39153454135345)" font-family="Tahoma, Verdana, sans-serif" font-size="14px" fill="#282828" opacity="1">100,000</text><text text-anchor="end" transform="translate(-7,177.55535272889665)" font-family="Tahoma, Verdana, sans-serif" font-size="14px" fill="#282828" opacity="1">200,000</text><text text-anchor="end" transform="translate(-7,157.76245520102628)" font-family="Tahoma, Verdana, sans-serif" font-size="14px" fill="#282828" opacity="1">300,000</text><text text-anchor="end" transform="translate(-7,143.7191709164399)" font-family="Tahoma, Verdana, sans-serif" font-size="14px" fill="#282828" opacity="1">400,000</text><text text-anchor="end" transform="translate(-7,132.8263533672933)" font-family="Tahoma, Verdana, sans-serif" font-size="14px" fill="#282828" opacity="1"/><text text-anchor="end" transform="translate(-7,123.9262733885695)" font-family="Tahoma, Verdana, sans-serif" font-size="14px" fill="#282828" opacity="1"/><text text-anchor="end" transform="translate(-7,116.40136298651693)" font-family="Tahoma, Verdana, sans-serif" font-size="14px" fill="#282828" opacity="1"/><text text-anchor="end" transform="translate(-7,109.88298910398309)" font-family="Tahoma, Verdana, sans-serif" font-size="14px" fill="#282828" opacity="1"/><text text-anchor="end" transform="translate(-7,104.13337586069905)" font-family="Tahoma, Verdana, sans-serif" font-size="14px" fill="#282828" opacity="1"/><text text-anchor="end" transform="translate(-7,98.99017155483654)" font-family="Tahoma, Verdana, sans-serif" font-size="14px" fill="#282828" opacity="1">1,000,000</text><text text-anchor="end" transform="translate(-7,65.15398974237974)" font-family="Tahoma, Verdana, sans-serif" font-size="14px" fill="#282828" opacity="1">2,000,000</text><text text-anchor="end" transform="translate(-7,45.36109221450928)" font-family="Tahoma, Verdana, sans-serif" font-size="14px" fill="#282828" opacity="1">3,000,000</text><text text-anchor="end" transform="translate(-7,31.317807929922967)" font-family="Tahoma, Verdana, sans-serif" font-size="14px" fill="#282828" opacity="1">4,000,000</text><text text-anchor="end" transform="translate(-7,20.424990380776304)" font-family="Tahoma, Verdana, sans-serif" font-size="14px" fill="#282828" opacity="1"/><text text-anchor="end" transform="translate(-7,11.524910402052477)" font-family="Tahoma, Verdana, sans-serif" font-size="14px" fill="#282828" opacity="1"/><text text-anchor="end" transform="translate(-7,4)" font-family="Tahoma, Verdana, sans-serif" font-size="14px" fill="#282828" opacity="1"/></g><g class="mark-rule role-axis-domain" pointer-events="none"><line transform="translate(0,300)" x2="0" y2="-300" stroke="#888" stroke-width="1" opacity="1"/></g><g class="mark-text role-axis-title" pointer-events="none"><text text-anchor="middle" transform="translate(-72.974609375,150) rotate(-90) translate(0,-3)" font-family="Tahoma, Verdana, sans-serif" font-size="15px" font-weight="bold" fill="#282828" opacity="1">Cost to fix one error (USD, log scale)</text></g></g><path class="foreground" aria-hidden="true" d="" pointer-events="none" display="none"/></g></g><g class="mark-line role-mark layer_0_marks" role="graphics-object" aria-roledescription="line mark container"><path aria-label="i: 0; Cost to fix one error (USD, log scale): 22632" role="graphics-symbol" aria-roledescription="line mark" d="M39.184,279.922L137.143,213.725L235.102,145.572L333.061,79.591L431.02,33.031" stroke="#d32f2f" stroke-width="4"/></g><g class="mark-symbol role-mark layer_1_marks" role="graphics-object" aria-roledescription="symbol mark container"><path aria-label="i: 0; Cost to fix one error (USD, log scale): 22632" role="graphics-symbol" aria-roledescription="point" transform="translate(39.18367346938775,279.92155621323326)" d="M6.124,0A6.124,6.124,0,1,1,-6.124,0A6.124,6.124,0,1,1,6.124,0" fill="#d32f2f" stroke-width="2" opacity="0.7"/><path aria-label="i: 1; Cost to fix one error (USD, log scale): 87832" role="graphics-symbol" aria-roledescription="point" transform="translate(137.14285714285714,213.72503976083146)" d="M6.124,0A6.124,6.124,0,1,1,-6.124,0A6.124,6.124,0,1,1,6.124,0" fill="#d32f2f" stroke-width="2" opacity="0.7"/><path aria-label="i: 2; Cost to fix one error (USD, log scale): 354808" role="graphics-symbol" aria-roledescription="point" transform="translate(235.1020408163265,145.571526356152)" d="M6.124,0A6.124,6.124,0,1,1,-6.124,0A6.124,6.124,0,1,1,6.124,0" fill="#d32f2f" stroke-width="2" opacity="0.7"/><path aria-label="i: 3; Cost to fix one error (USD, log scale): 1370888" role="graphics-symbol" aria-roledescription="point" transform="translate(333.06122448979585,79.59096284754035)" d="M6.124,0A6.124,6.124,0,1,1,-6.124,0A6.124,6.124,0,1,1,6.124,0" fill="#d32f2f" stroke-width="2" opacity="0.7"/><path aria-label="i: 4; Cost to fix one error (USD, log scale): 3558215" role="graphics-symbol" aria-roledescription="point" transform="translate(431.0204081632653,33.03092250871994)" d="M6.124,0A6.124,6.124,0,1,1,-6.124,0A6.124,6.124,0,1,1,6.124,0" fill="#d32f2f" stroke-width="2" opacity="0.7"/></g><g class="mark-text role-mark layer_2_marks" role="graphics-object" aria-roledescription="text mark container"><text aria-label="i: 0; Cost to fix one error (USD, log scale): 22632; lab: $22,632" role="graphics-symbol" aria-roledescription="text mark" text-anchor="middle" transform="translate(39.18367346938775,260.92155621323326)" font-family="Tahoma, Verdana, sans-serif" font-size="15px" font-weight="bold" fill="#282828">$22,632</text><text aria-label="i: 1; Cost to fix one error (USD, log scale): 87832; lab: $87,832" role="graphics-symbol" aria-roledescription="text mark" text-anchor="middle" transform="translate(137.14285714285714,194.72503976083146)" font-family="Tahoma, Verdana, sans-serif" font-size="15px" font-weight="bold" fill="#282828">$87,832</text><text aria-label="i: 2; Cost to fix one error (USD, log scale): 354808; lab: $354,808" role="graphics-symbol" aria-roledescription="text mark" text-anchor="middle" transform="translate(235.1020408163265,126.57152635615199)" font-family="Tahoma, Verdana, sans-serif" font-size="15px" font-weight="bold" fill="#282828">$354,808</text><text aria-label="i: 3; Cost to fix one error (USD, log scale): 1370888; lab: $1,370,888" role="graphics-symbol" aria-roledescription="text mark" text-anchor="middle" transform="translate(333.06122448979585,60.590962847540354)" font-family="Tahoma, Verdana, sans-serif" font-size="15px" font-weight="bold" fill="#282828">$1,370,888</text><text aria-label="i: 4; Cost to fix one error (USD, log scale): 3558215; lab: $3,558,215" role="graphics-symbol" aria-roledescription="text mark" text-anchor="middle" transform="translate(431.0204081632653,14.03092250871994)" font-family="Tahoma, Verdana, sans-serif" font-size="15px" font-weight="bold" fill="#282828">$3,558,215</text></g></g><path class="foreground" aria-hidden="true" d="" display="none"/></g></g></g></svg>